{"glyphs":{"^":{"ha":6022,"x_min":0,"x_max":0,"o":"m 71 907 b 65 906 69 914 64 908 b 71 808 71 874 71 842 b 74 731 71 783 74 757 b 72 701 74 721 74 711 b 68 751 68 718 68 735 l 64 757 l 63 751 l 61 719 b 69 351 60 596 69 474 b 56 26 69 243 56 135 b 64 0 56 17 58 7 b 65 7 65 1 65 6 b 64 51 65 22 56 31 b 107 4 71 18 89 4 b 165 49 129 4 165 25 b 175 471 165 189 175 331 b 172 708 175 550 172 629 b 175 749 172 721 172 735 b 797 128 210 699 792 131 b 875 40 831 106 842 61 b 936 18 881 38 914 18 b 953 28 943 18 950 21 b 946 64 957 40 949 51 b 958 108 956 76 958 93 b 954 276 958 160 954 225 b 960 440 954 329 960 385 b 965 686 960 522 965 604 b 960 776 965 715 960 746 b 963 865 960 806 963 835 b 957 906 963 875 963 897 b 886 972 933 936 933 960 l 875 960 b 864 932 872 950 864 942 b 864 892 864 919 867 906 l 857 901 b 854 864 854 889 854 876 b 858 264 854 660 858 468 b 860 228 858 251 853 239 b 863 169 861 208 861 189 l 858 172 l 604 464 b 304 764 518 581 401 658 b 176 921 261 808 219 885 b 115 950 168 933 139 950 b 83 929 101 950 89 944 b 79 890 83 919 90 900 z m 5178 769 l 5175 764 b 5171 746 5176 760 5178 746 l 5165 746 l 5157 754 l 5156 750 b 5147 699 5156 732 5147 715 b 5117 585 5147 676 5143 585 b 5054 588 5086 585 5085 588 b 4922 572 5022 588 4963 582 b 4886 536 4907 568 4886 561 b 4994 500 4886 504 4967 500 b 5078 500 5031 500 5040 506 b 5101 479 5085 499 5106 501 b 5082 335 5101 442 5088 372 b 5068 210 5075 294 5068 251 b 5118 28 5068 151 5074 74 b 5200 -3 5129 18 5160 -3 b 5389 104 5278 -3 5364 76 b 5381 119 5399 114 5394 119 b 5339 104 5365 119 5353 108 b 5231 86 5304 94 5267 86 b 5168 251 5164 86 5168 208 b 5194 476 5168 315 5185 413 b 5211 503 5196 485 5199 501 b 5469 564 5271 508 5424 540 l 5464 569 b 5436 572 5454 572 5446 572 l 5418 568 b 5410 568 5415 568 5413 568 b 5369 569 5396 568 5383 568 b 5403 581 5381 571 5393 572 b 5290 588 5396 588 5307 588 b 5215 579 5264 588 5235 578 l 5215 593 b 5222 640 5217 610 5222 625 b 5217 722 5222 668 5217 694 b 5178 779 5217 757 5204 761 z m 4110 769 l 4107 764 b 4103 746 4108 760 4110 746 l 4097 746 l 4089 754 l 4088 750 b 4079 699 4088 732 4079 715 b 4049 585 4079 676 4075 585 b 3986 588 4018 585 4017 588 b 3854 572 3954 588 3894 582 b 3818 536 3839 568 3818 561 b 3926 500 3818 504 3899 500 b 4010 500 3963 500 3972 506 b 4033 479 4017 499 4038 501 b 4014 335 4033 442 4019 372 b 4000 210 4007 294 4000 251 b 4050 28 4000 151 4006 74 b 4132 -3 4061 18 4092 -3 b 4321 104 4210 -3 4296 76 b 4313 119 4331 114 4326 119 b 4271 104 4297 119 4285 108 b 4163 86 4236 94 4199 86 b 4100 251 4096 86 4100 208 b 4126 476 4100 315 4117 413 b 4143 503 4128 485 4131 501 b 4401 564 4203 508 4356 540 l 4396 569 b 4368 572 4386 572 4378 572 l 4350 568 b 4342 568 4347 568 4344 568 b 4301 569 4328 568 4315 568 b 4335 581 4313 571 4325 572 b 4222 588 4328 588 4239 588 b 4147 579 4196 588 4167 578 l 4147 593 b 4154 640 4149 610 4154 625 b 4149 722 4154 668 4149 694 b 4110 779 4149 757 4136 761 z m 3738 614 b 3683 604 3718 613 3703 606 b 3674 601 3679 604 3676 604 b 3643 589 3664 596 3654 589 b 3611 572 3635 586 3619 578 b 3607 569 3610 571 3608 571 b 3540 503 3586 551 3553 528 b 3529 432 3525 472 3525 449 b 3546 393 3531 417 3539 406 b 3607 326 3564 367 3583 349 b 3699 232 3639 297 3669 264 b 3731 167 3715 214 3731 193 b 3710 126 3731 149 3719 138 b 3700 114 3706 122 3703 118 b 3697 113 3699 114 3697 113 l 3692 108 b 3689 106 3690 107 3689 107 b 3643 82 3678 96 3653 82 b 3636 79 3640 81 3639 79 b 3586 64 3629 74 3593 64 b 3579 64 3585 65 3582 64 b 3564 61 3574 63 3569 60 b 3553 58 3560 60 3557 58 b 3550 58 3551 58 3551 58 b 3536 56 3546 56 3542 56 b 3531 54 3535 54 3533 54 b 3528 53 3531 53 3529 53 b 3506 50 3525 51 3508 50 b 3492 49 3501 50 3496 47 b 3451 57 3476 47 3464 51 b 3418 75 3439 64 3433 72 b 3400 72 3411 75 3406 75 b 3388 60 3394 71 3388 65 b 3382 36 3388 51 3385 44 b 3407 7 3374 18 3393 10 b 3467 -10 3428 4 3436 -8 b 3485 -11 3472 -10 3478 -8 b 3589 -8 3492 -14 3581 -11 b 3686 6 3614 -1 3653 -3 b 3707 14 3693 7 3701 10 b 3726 28 3715 18 3721 22 b 3742 36 3732 32 3738 33 b 3767 57 3753 40 3760 49 b 3782 76 3771 60 3774 67 b 3790 90 3786 81 3789 85 b 3799 113 3794 97 3796 106 b 3801 147 3804 129 3801 129 b 3764 263 3801 181 3771 251 b 3753 275 3761 267 3756 269 b 3749 283 3751 278 3751 281 b 3739 294 3746 288 3743 292 b 3735 300 3738 297 3736 299 b 3728 308 3732 303 3729 306 b 3719 321 3725 313 3722 317 b 3603 442 3689 360 3614 404 b 3604 476 3599 451 3599 468 b 3749 571 3626 513 3707 563 b 3769 571 3756 572 3763 571 b 3776 572 3771 571 3775 571 b 3789 592 3783 578 3788 583 b 3781 608 3790 599 3785 604 b 3769 611 3776 611 3772 610 b 3758 614 3765 613 3764 614 b 3738 614 3751 614 3744 614 z m 5865 536 b 5724 603 5865 593 5765 603 b 5444 340 5585 603 5444 504 b 5786 1 5444 140 5576 1 b 5994 64 5846 1 5994 18 b 5972 82 5994 74 5983 82 b 5949 72 5963 82 5956 76 b 5803 58 5899 81 5851 58 b 5700 111 5781 58 5707 90 l 5703 115 b 5732 188 5731 126 5711 171 b 5854 496 5765 293 5808 394 b 5865 536 5860 511 5865 526 z m 1419 604 b 1264 518 1354 604 1308 560 b 1149 221 1185 442 1149 332 b 1440 22 1149 47 1311 22 b 1478 32 1454 22 1465 32 b 1550 46 1503 32 1528 33 b 1599 67 1565 54 1581 67 b 1644 93 1615 67 1644 71 b 1635 103 1644 99 1640 103 b 1622 101 1631 103 1626 103 b 1607 104 1618 103 1613 104 b 1478 90 1564 104 1522 90 b 1260 236 1367 90 1260 99 b 1446 510 1260 367 1357 510 b 1508 515 1467 510 1488 515 b 1622 288 1543 515 1606 324 b 1765 29 1665 192 1733 71 b 1811 -10 1776 17 1796 -3 b 1828 -26 1815 -17 1821 -22 b 1846 6 1836 -19 1846 -6 b 1817 71 1846 18 1821 53 b 1665 428 1779 190 1735 322 b 1489 594 1651 496 1554 594 b 1419 604 1465 594 1439 604 z m 2935 604 b 2779 518 2869 604 2824 560 b 2664 221 2700 442 2664 332 b 2956 22 2664 47 2826 22 b 2993 32 2969 22 2981 32 b 3065 46 3018 32 3043 33 b 3114 67 3081 54 3096 67 b 3160 93 3131 67 3160 71 b 3150 103 3160 99 3156 103 b 3138 101 3146 103 3142 103 b 3122 104 3133 103 3128 104 b 2993 90 3079 104 3038 90 b 2775 236 2882 90 2775 99 b 2961 510 2775 367 2872 510 b 3024 515 2982 510 3003 515 b 3138 288 3058 515 3121 324 b 3281 29 3181 192 3249 71 b 3326 -10 3292 17 3311 -3 b 3343 -26 3331 -17 3336 -22 b 3361 6 3351 -19 3361 -6 b 3332 71 3361 18 3336 53 b 3181 428 3294 190 3250 322 b 3004 594 3167 496 3069 594 b 2935 604 2981 594 2954 604 z m 4600 604 b 4444 518 4535 604 4489 560 b 4329 221 4365 442 4329 332 b 4621 22 4329 47 4492 22 b 4658 32 4635 22 4646 32 b 4731 46 4683 32 4708 33 b 4779 67 4746 54 4761 67 b 4825 93 4796 67 4825 71 b 4815 103 4825 99 4819 103 b 4803 101 4811 103 4807 103 b 4788 104 4799 103 4793 104 b 4658 90 4744 104 4703 90 b 4440 236 4547 90 4440 99 b 4626 510 4440 367 4538 510 b 4689 515 4647 510 4668 515 b 4803 288 4724 515 4786 324 b 4946 29 4846 192 4914 71 b 4992 -10 4957 17 4976 -3 b 5008 -26 4994 -17 5001 -22 b 5026 6 5017 -19 5026 -6 b 4997 71 5026 18 5001 53 b 4844 428 4960 190 4915 322 b 4669 594 4832 496 4735 594 b 4600 604 4646 594 4619 604 z m 2601 446 b 2438 603 2597 533 2529 607 b 2274 501 2390 601 2308 536 b 2150 600 2264 535 2229 600 b 2046 571 2122 600 2071 583 b 1975 528 2021 560 2001 539 b 1972 526 1975 528 1974 526 b 1954 511 1965 522 1963 514 b 1947 515 1950 508 1947 508 b 1950 546 1946 525 1947 536 b 1944 579 1954 558 1953 569 b 1938 579 1942 582 1940 583 b 1918 571 1932 574 1926 568 b 1894 568 1917 571 1896 569 b 1872 540 1888 560 1878 551 b 1844 413 1853 500 1846 456 b 1846 261 1843 361 1844 311 b 1853 122 1847 215 1850 168 b 1857 83 1854 110 1853 96 b 1872 28 1863 65 1871 47 b 1876 21 1872 25 1875 22 b 1889 7 1882 18 1889 13 b 1897 -1 1889 1 1892 0 b 1938 3 1908 -4 1928 4 b 1942 8 1940 3 1942 7 b 1942 31 1939 17 1942 24 b 1939 122 1942 61 1940 92 b 1935 254 1938 167 1936 210 b 1933 310 1933 272 1932 292 b 1932 371 1935 331 1935 350 b 1946 406 1931 385 1935 397 b 1953 414 1949 408 1951 411 b 2076 515 1960 425 2054 507 b 2113 528 2089 518 2099 526 b 2136 532 2121 529 2128 532 b 2151 526 2142 532 2146 531 b 2171 511 2158 522 2165 518 b 2211 388 2193 479 2208 426 b 2221 253 2214 342 2224 299 b 2229 185 2219 229 2228 208 b 2268 118 2229 172 2250 114 b 2271 124 2271 119 2271 122 b 2269 153 2269 133 2269 143 b 2274 161 2269 156 2269 160 b 2281 174 2279 164 2281 168 b 2283 197 2282 182 2282 189 b 2285 226 2283 207 2281 217 b 2288 242 2288 232 2288 236 b 2288 315 2288 267 2289 290 b 2285 428 2288 339 2288 403 b 2407 522 2322 458 2364 497 b 2447 540 2419 531 2433 536 b 2496 528 2465 547 2482 538 b 2529 475 2514 515 2524 496 b 2543 390 2533 464 2542 403 b 2543 308 2546 363 2544 336 b 2539 224 2543 279 2540 251 b 2533 125 2539 214 2533 125 b 2528 83 2528 111 2531 97 b 2525 31 2526 65 2526 47 b 2529 -37 2524 7 2522 -15 b 2538 -57 2532 -44 2532 -51 b 2539 -47 2540 -54 2539 -50 b 2546 -40 2538 -42 2538 -37 b 2550 -37 2549 -40 2551 -39 b 2551 -21 2549 -31 2553 -26 b 2569 40 2550 0 2565 19 b 2578 68 2571 50 2569 61 b 2579 76 2579 69 2579 74 b 2585 115 2581 89 2582 103 b 2596 224 2592 147 2601 192 b 2599 276 2593 240 2596 258 b 2600 300 2600 283 2597 292 b 2604 346 2604 315 2606 331 b 2603 382 2603 358 2601 369 b 2601 446 2607 403 2603 425 z m 5711 321 b 5660 129 5683 240 5667 201 b 5567 332 5604 158 5567 251 b 5785 522 5567 461 5656 521 b 5711 321 5783 475 5743 417 z m 4574 283 b 4629 228 4574 250 4596 228 b 4686 283 4664 228 4686 250 b 4629 340 4686 318 4664 340 b 4574 283 4596 340 4574 318 z m 2908 283 b 2964 228 2908 250 2931 228 b 3021 283 2999 228 3021 250 b 2964 340 3021 318 2999 340 b 2908 283 2931 340 2908 318 z m 1393 283 b 1449 228 1393 250 1415 228 b 1506 283 1483 228 1506 250 b 1449 340 1506 318 1483 340 b 1393 283 1415 340 1393 318 z "},"\u0000":{"ha":0,"x_min":0,"x_max":0,"o":""},"\r":{"ha":347,"x_min":0,"x_max":0,"o":""}," ":{"ha":361,"x_min":0,"x_max":0,"o":""},"A":{"ha":883,"x_min":0,"x_max":0,"o":"m 557 890 b 529 939 549 906 536 922 b 494 989 521 960 517 983 b 461 975 475 994 471 990 b 307 676 396 883 344 782 b 67 133 229 444 67 138 b 28 32 67 107 38 58 l 29 26 l 33 22 l 29 10 l 33 10 b 60 22 40 17 50 22 l 65 22 l 74 25 b 247 293 142 107 203 196 b 286 367 258 318 269 344 b 367 539 301 429 340 481 b 483 790 406 621 429 714 b 517 711 497 765 507 738 b 690 282 564 564 628 422 b 732 183 704 249 725 218 b 743 161 738 176 740 169 b 815 29 761 114 786 71 l 822 32 b 849 0 836 26 840 11 l 872 10 b 832 131 864 31 832 114 b 592 786 832 240 639 649 b 557 890 579 821 574 857 z m 533 290 b 465 357 533 328 503 357 b 399 290 429 357 399 328 b 465 222 399 253 429 222 b 533 290 503 222 533 253 z "},"B":{"ha":846,"x_min":0,"x_max":0,"o":"m 728 300 b 396 122 728 231 472 142 b 182 72 325 104 246 94 b 179 64 182 71 179 67 b 228 42 179 54 219 42 b 254 49 238 42 246 46 l 260 46 b 281 33 264 39 272 33 b 307 36 289 33 299 35 l 311 35 b 329 25 315 29 322 25 b 796 303 460 25 796 144 b 413 517 796 440 604 524 b 624 738 546 560 624 647 b 358 950 624 888 494 950 b 289 944 335 950 313 947 b 274 972 282 951 278 961 b 279 985 276 975 279 981 b 260 1010 279 994 271 1010 b 239 1003 253 1010 247 1003 b 231 1004 236 1003 233 1004 b 161 881 214 1004 197 906 b 69 794 124 854 89 842 b 111 774 74 779 99 774 b 153 785 126 774 139 785 l 161 785 l 163 782 b 128 463 149 676 140 569 b 100 210 119 378 100 294 b 104 124 100 181 104 153 b 100 21 104 89 100 56 b 117 0 100 11 104 0 b 139 19 126 0 139 7 b 168 71 139 53 167 26 b 185 228 168 125 172 167 b 200 263 197 236 197 253 b 232 442 214 321 221 382 b 267 432 243 438 254 429 b 413 444 300 439 353 444 b 728 300 554 444 728 413 z m 388 867 b 554 739 456 867 554 818 b 386 572 554 646 468 603 b 260 536 346 557 297 557 b 240 521 253 532 246 526 b 260 614 238 553 260 582 b 274 817 260 668 256 768 b 388 867 286 847 357 867 z "},"C":{"ha":807,"x_min":0,"x_max":0,"o":"m 704 943 b 654 972 704 960 690 972 b 553 967 621 972 588 967 b 211 813 457 967 290 894 b 69 486 114 708 69 632 b 319 79 69 311 174 167 b 396 51 338 68 375 51 b 411 54 401 51 406 54 b 499 25 442 54 468 25 b 622 11 551 25 583 11 b 700 0 649 11 674 0 b 738 38 721 0 738 15 b 728 49 738 42 733 47 b 444 133 649 60 533 86 b 201 442 325 197 201 289 b 308 710 201 563 224 624 b 611 892 376 779 519 854 b 704 943 638 901 704 903 z "},"D":{"ha":910,"x_min":0,"x_max":0,"o":"m 714 456 b 250 63 681 315 400 63 b 236 69 244 63 240 64 b 244 89 240 75 244 82 b 235 175 244 118 238 146 b 247 225 231 221 249 181 b 233 558 246 336 233 447 b 225 601 233 572 236 589 b 218 694 222 632 218 663 b 222 789 218 725 222 757 b 214 807 222 796 214 799 b 174 863 214 861 200 833 l 172 863 b 125 589 126 863 125 629 b 142 285 125 488 131 386 b 169 57 150 208 169 133 b 96 11 138 54 103 28 b 100 7 94 8 94 7 b 125 19 110 7 114 19 b 158 4 140 19 146 4 b 164 4 160 4 161 4 l 174 6 b 178 6 175 6 176 6 b 235 0 197 6 217 0 b 297 21 257 0 278 13 l 311 10 b 390 26 338 10 363 26 b 538 94 439 26 499 67 b 826 483 703 210 767 292 b 839 579 833 507 839 543 b 779 751 839 642 815 701 b 308 988 675 896 485 988 b 138 964 250 988 192 981 b 76 929 115 957 96 943 b 81 922 72 926 74 924 b 83 918 83 921 86 919 b 46 875 68 907 46 897 b 54 851 46 869 44 851 b 117 872 78 851 97 863 b 229 886 156 872 192 886 b 617 742 371 886 506 829 b 660 692 626 733 660 704 b 683 647 660 674 672 661 b 718 526 703 621 718 561 b 713 483 718 513 713 499 b 714 456 713 474 715 465 z "},"E":{"ha":785,"x_min":0,"x_max":0,"o":"m 729 922 b 738 936 747 925 746 933 b 719 953 729 939 736 953 b 639 958 706 956 653 958 b 563 972 604 958 579 972 b 506 967 543 972 524 968 b 246 956 438 961 314 956 b 132 960 208 956 169 960 b 99 931 115 960 99 947 b 82 886 99 914 85 901 b 75 801 74 860 75 829 b 69 458 75 688 69 574 b 74 382 69 433 69 407 b 97 33 83 365 88 88 b 108 31 99 26 100 25 b 160 0 128 8 126 0 b 182 3 167 0 175 1 b 342 11 235 11 289 11 b 604 8 433 11 513 8 b 635 11 614 8 625 8 b 743 53 629 29 690 22 b 699 75 733 71 717 71 b 526 106 614 93 629 106 b 388 101 475 106 438 101 b 176 97 317 101 246 97 b 168 106 171 97 168 101 b 174 254 168 156 174 204 b 171 403 174 304 171 354 b 185 435 171 411 172 435 b 392 453 215 435 372 444 b 343 465 378 457 354 456 b 376 469 354 468 361 469 b 449 490 394 469 449 465 b 422 515 449 503 436 515 b 275 529 378 515 331 529 b 192 525 247 529 219 525 b 181 536 185 525 181 528 b 186 738 181 603 186 669 b 182 871 186 782 182 826 l 188 875 b 304 869 221 874 269 869 b 535 890 383 869 456 890 b 660 894 576 890 618 889 b 719 907 679 897 699 906 b 729 917 731 907 732 915 b 729 922 726 918 728 921 z "},"F":{"ha":710,"x_min":0,"x_max":0,"o":"m 158 42 l 176 49 b 200 74 188 54 196 64 b 196 192 197 114 196 153 b 197 203 196 196 197 199 l 200 222 b 201 232 201 225 201 229 b 197 354 201 264 197 322 b 203 382 197 358 197 382 b 250 378 219 382 235 378 b 447 424 318 378 382 417 b 475 457 476 426 496 454 b 325 479 468 457 353 479 b 253 472 301 479 276 472 b 197 479 243 472 197 468 b 193 696 197 551 193 624 b 197 806 193 733 197 769 b 196 858 197 826 190 839 b 311 828 235 858 274 835 b 411 818 344 821 378 818 b 624 876 494 818 549 817 b 696 919 642 890 696 881 b 632 938 696 931 642 938 l 447 938 b 199 969 363 938 285 969 b 160 994 182 969 169 982 b 142 1004 153 1001 147 1004 b 115 997 133 1004 128 997 b 96 994 110 997 101 1000 b 92 961 93 983 92 972 b 78 908 92 942 78 926 b 69 450 78 756 69 603 b 89 243 69 381 74 311 b 108 121 99 203 94 160 b 114 100 111 114 114 107 b 154 42 114 61 146 69 z "},"G":{"ha":793,"x_min":0,"x_max":0,"o":"m 543 968 b 57 400 276 921 57 679 b 172 121 57 303 94 185 b 560 17 267 43 438 17 b 643 11 607 17 632 17 b 678 -62 657 4 633 -19 b 706 -83 686 -71 696 -76 b 707 -76 706 -81 707 -78 b 701 -54 707 -68 701 -61 b 719 6 701 -33 719 -17 l 724 65 b 692 396 724 111 724 388 b 690 408 690 400 690 404 b 694 476 690 431 694 453 b 681 503 694 501 681 488 b 664 515 681 513 674 515 b 617 392 624 515 617 421 b 632 107 617 297 618 200 b 636 67 633 90 636 79 b 372 129 557 67 446 101 b 193 378 257 179 193 243 b 663 882 193 628 389 921 b 668 878 665 882 668 881 b 679 871 669 871 674 869 b 706 876 689 871 697 874 b 726 907 719 882 721 896 b 719 918 726 910 721 915 b 543 968 683 961 592 976 z "},"H":{"ha":963,"x_min":0,"x_max":0,"o":"m 144 900 b 149 826 147 875 149 853 b 164 607 151 754 160 681 b 171 493 165 590 175 506 b 108 489 151 492 129 489 b 72 468 86 489 89 472 l 71 465 b 192 254 147 357 192 506 b 196 113 192 207 196 160 b 215 -4 196 96 199 -3 b 236 17 222 3 229 10 b 240 94 235 42 228 71 b 261 125 243 108 261 111 b 275 363 261 204 275 283 b 301 404 275 389 267 404 b 650 421 417 404 533 421 b 660 414 654 421 660 419 b 672 286 660 371 672 329 b 690 150 672 240 690 196 b 729 -12 690 93 721 43 b 740 -43 731 -19 731 -43 b 754 -37 746 -43 749 -37 b 768 -43 760 -37 764 -44 b 774 -25 775 -42 774 -32 b 779 43 774 0 779 24 b 778 58 779 49 778 53 b 788 89 778 69 788 76 b 790 151 788 110 790 131 b 779 246 790 183 779 214 b 769 432 779 308 769 369 b 826 442 769 442 818 442 b 869 464 847 442 838 464 b 894 475 888 464 894 468 b 867 500 894 485 889 499 b 763 568 828 503 763 486 b 764 746 763 614 761 682 l 765 804 b 767 818 767 808 765 813 b 767 894 768 832 774 882 b 756 914 761 901 758 908 b 740 931 749 918 742 921 b 736 933 739 932 738 932 b 725 928 731 935 729 926 b 722 926 724 926 722 926 b 715 924 719 924 718 924 b 710 922 714 922 711 922 b 683 910 699 915 700 928 b 654 819 665 881 654 854 l 653 761 b 649 635 650 718 649 676 b 651 525 649 597 651 561 b 643 517 651 518 650 518 b 433 508 574 508 503 508 b 289 500 386 508 338 500 b 272 513 281 500 272 503 b 265 661 272 563 265 613 b 254 813 265 713 258 763 b 251 879 251 844 254 863 b 250 892 251 883 250 888 b 254 939 253 907 253 924 b 254 953 254 943 257 949 b 240 979 247 961 249 972 b 226 988 236 983 233 989 b 221 992 224 988 222 990 b 221 997 221 994 221 996 b 218 1000 221 999 219 1000 b 215 997 217 1000 217 999 b 211 996 215 994 214 992 b 206 996 208 1000 207 999 b 196 989 203 992 200 989 b 160 953 154 992 175 976 b 153 926 154 944 154 935 b 150 921 153 924 151 922 b 144 900 143 915 143 908 z "},"I":{"ha":263,"x_min":0,"x_max":0,"o":"m 83 107 b 88 -53 83 54 86 0 b 94 -56 88 -61 92 -67 b 96 -36 96 -49 96 -42 b 118 31 96 -15 86 31 l 128 31 b 150 124 146 29 132 124 b 164 129 158 124 160 119 b 193 525 172 144 193 458 b 192 728 193 593 192 661 b 190 756 192 738 190 746 b 164 928 185 814 164 868 b 108 974 164 944 124 974 b 76 822 81 974 75 903 b 88 611 76 733 88 633 l 88 488 b 82 319 88 432 82 376 b 88 210 82 283 88 246 b 83 107 88 175 83 142 z "},"J":{"ha":413,"x_min":0,"x_max":0,"o":"m 71 57 b 42 53 63 54 51 54 b 7 25 25 50 10 46 b 28 4 6 15 19 6 b 124 14 61 0 92 18 b 261 86 178 7 236 60 l 256 61 b 360 313 326 129 349 226 b 357 732 375 443 368 603 b 343 892 353 786 338 839 b 340 971 346 915 350 950 b 324 965 335 968 329 965 b 294 978 319 965 310 978 b 233 883 257 978 236 911 b 247 585 222 788 239 683 b 238 256 256 485 250 356 b 71 57 228 164 161 79 z "},"K":{"ha":828,"x_min":0,"x_max":0,"o":"m 607 932 b 433 817 547 896 488 863 b 181 592 346 743 238 633 b 175 676 175 619 175 649 b 178 760 175 704 178 732 b 175 814 178 778 175 796 b 178 871 175 832 178 851 b 122 972 178 899 160 972 b 113 967 118 972 115 969 b 89 931 110 950 89 954 b 83 892 89 917 94 903 b 69 892 78 910 69 904 b 72 314 78 699 72 506 b 76 181 72 269 76 225 b 83 85 76 149 83 117 b 88 67 83 82 83 67 b 99 86 96 67 89 83 l 103 81 b 103 39 103 67 103 53 l 106 33 l 111 39 b 117 54 110 44 113 51 l 121 50 b 124 40 122 47 124 43 b 115 14 124 31 117 24 l 121 6 l 126 6 l 138 0 b 165 85 146 10 165 69 b 160 260 165 143 160 201 b 174 393 160 303 174 346 b 179 419 174 397 174 419 b 636 68 258 419 518 113 b 643 75 642 67 643 67 l 640 89 b 715 53 664 82 696 53 b 803 17 749 53 772 24 b 808 44 819 14 814 35 b 747 110 796 65 765 92 b 225 517 596 269 393 400 b 332 624 258 551 296 592 b 607 893 414 697 585 826 b 603 904 606 896 603 900 b 617 929 603 914 615 919 b 607 932 618 936 611 935 z "},"L":{"ha":750,"x_min":0,"x_max":0,"o":"m 722 110 b 697 118 722 118 703 118 b 685 118 693 118 689 118 l 660 115 b 649 115 657 115 653 115 b 433 117 576 115 506 113 b 343 126 403 119 374 126 b 258 140 314 126 288 140 b 222 172 233 139 222 144 b 213 458 224 269 222 364 b 193 626 207 515 193 571 b 178 778 193 647 183 729 b 167 922 172 826 167 874 b 165 928 167 924 165 925 l 164 939 b 163 944 164 940 163 942 b 142 972 164 954 154 972 b 113 960 131 972 124 960 b 69 824 72 960 69 853 b 69 753 69 799 69 785 b 69 671 69 726 69 700 b 93 438 69 594 86 515 b 94 144 97 390 108 189 b 82 85 89 131 82 100 b 104 43 82 56 101 54 b 121 32 100 33 106 32 b 163 49 143 32 147 44 b 494 0 272 28 382 0 b 692 78 588 0 629 10 b 722 110 706 92 722 85 z "},"M":{"ha":1069,"x_min":0,"x_max":0,"o":"m 882 882 b 565 563 775 781 672 663 b 288 829 476 649 365 733 b 146 940 265 860 188 940 b 110 878 118 940 110 899 b 97 747 110 839 104 785 b 86 540 85 681 86 608 b 74 358 86 479 74 419 b 75 346 74 354 74 350 l 76 321 b 76 308 76 317 76 313 b 74 183 76 268 74 225 b 69 129 74 165 69 147 b 85 61 69 106 85 85 b 104 4 85 46 79 4 b 140 36 143 4 126 28 b 157 0 147 25 146 8 l 161 4 b 168 69 163 25 168 47 b 160 140 168 85 160 114 b 179 388 160 224 168 307 b 192 668 192 481 192 575 b 196 817 192 718 192 767 b 299 683 246 779 256 726 b 433 568 339 640 388 607 b 488 528 450 553 471 543 b 581 472 515 500 539 475 b 613 486 593 471 604 479 b 654 542 643 507 635 519 b 744 632 682 574 719 596 b 761 649 750 639 756 644 b 867 749 799 676 835 713 b 892 772 875 756 883 764 b 896 772 893 772 894 774 b 899 696 896 747 897 721 b 900 608 899 667 899 638 b 903 494 903 575 903 528 b 904 385 903 458 904 421 b 906 336 904 368 907 353 b 906 335 906 335 906 335 b 907 313 910 328 907 321 b 907 301 908 310 907 306 b 908 275 910 293 908 285 b 910 256 908 268 911 263 b 918 251 913 254 913 250 b 917 276 915 260 918 269 b 913 363 913 306 913 333 b 911 472 911 399 910 436 b 910 556 913 496 908 532 b 910 576 911 563 910 569 b 908 693 910 615 908 654 b 907 761 908 717 908 739 b 907 785 906 768 903 776 l 919 789 b 921 615 914 740 924 665 b 922 585 921 604 922 594 b 928 361 925 511 928 435 b 932 267 926 338 929 289 b 935 213 933 249 936 231 b 936 208 936 211 936 210 b 943 76 943 165 936 119 b 950 31 944 61 953 44 b 950 25 950 29 950 26 b 961 6 954 18 957 11 b 985 4 969 -4 981 -4 b 986 18 986 8 986 13 b 1004 25 999 10 1004 13 b 1008 225 1006 92 1013 156 b 1010 278 1008 243 1011 260 b 1007 422 1010 310 1006 390 b 1010 499 1007 447 1010 474 b 1008 599 1008 525 1008 571 b 1008 631 1007 610 1010 619 b 1006 686 1007 650 1006 668 b 1000 813 1007 729 1003 771 b 996 842 999 822 993 831 b 997 854 997 846 997 850 b 958 939 992 886 990 939 b 911 917 947 939 932 932 b 889 889 901 910 897 897 b 882 882 886 886 885 885 z "},"N":{"ha":1022,"x_min":0,"x_max":0,"o":"m 71 907 b 65 906 69 914 64 908 b 71 808 71 874 71 842 b 74 731 71 783 74 757 b 72 701 74 721 74 711 b 68 751 68 718 68 735 l 64 757 l 63 751 l 61 719 b 69 351 60 596 69 474 b 56 26 69 243 56 135 b 64 0 56 17 58 7 b 65 7 65 1 65 6 b 64 51 65 22 56 31 b 107 4 71 18 89 4 b 165 49 129 4 165 25 b 175 471 165 189 175 331 b 172 708 175 550 172 629 b 175 749 172 721 172 735 b 797 128 210 699 792 131 b 875 40 831 106 842 61 b 936 18 881 38 914 18 b 953 28 943 18 950 21 b 946 64 957 40 949 51 b 958 108 956 76 958 93 b 954 276 958 160 954 225 b 960 440 954 329 960 385 b 965 686 960 522 965 604 b 960 776 965 715 960 746 b 963 865 960 806 963 835 b 957 906 963 875 963 897 b 886 972 933 936 933 960 l 875 960 b 864 932 872 950 864 942 b 864 892 864 919 867 906 l 857 901 b 854 864 854 889 854 876 b 858 264 854 660 858 468 b 860 228 858 251 853 239 b 863 169 861 208 861 189 l 858 172 l 604 464 b 304 764 518 581 401 658 b 176 921 261 808 219 885 b 115 950 168 933 139 950 b 83 929 101 950 89 944 b 79 890 83 919 90 900 z "},"O":{"ha":999,"x_min":0,"x_max":0,"o":"m 461 14 b 942 481 688 14 942 246 b 724 881 942 601 879 753 b 599 949 700 899 628 943 b 589 951 594 949 592 950 b 515 969 569 963 542 969 b 447 943 488 969 461 961 b 463 896 433 924 443 897 b 60 410 294 846 60 624 b 461 14 60 81 290 14 z m 881 436 b 800 271 881 401 819 296 b 479 76 750 206 596 76 b 171 400 272 76 171 203 b 335 715 171 521 253 633 b 553 836 408 789 533 836 b 594 857 578 836 574 857 b 772 711 658 857 731 764 b 758 740 767 724 764 731 b 878 542 801 724 874 569 b 876 464 885 499 876 490 b 881 436 876 454 881 446 z "},"P":{"ha":668,"x_min":0,"x_max":0,"o":"m 618 600 b 143 956 618 844 306 956 b 114 961 128 956 119 958 b 88 972 104 967 103 972 b 78 963 82 972 78 968 b 81 940 78 954 81 947 b 85 894 81 907 67 921 b 92 851 92 885 92 864 b 78 581 92 761 78 671 b 74 268 78 476 74 372 b 89 83 74 206 89 146 b 108 13 89 69 90 13 b 118 28 119 15 111 19 b 136 11 128 28 133 21 b 147 4 138 6 142 4 b 185 33 163 4 185 18 b 188 64 185 43 181 56 b 189 72 189 67 189 69 b 185 108 189 85 185 96 b 186 115 185 110 186 113 b 192 126 190 118 192 122 b 183 283 192 179 183 231 b 185 304 183 289 185 299 b 303 318 233 293 257 318 b 271 301 294 311 282 306 b 618 600 378 293 618 438 z m 506 599 b 186 343 506 467 296 358 b 188 656 186 447 188 554 b 189 696 188 668 189 682 b 183 718 189 704 186 711 b 165 847 169 753 165 815 b 178 857 165 857 171 857 b 506 599 332 857 506 768 z "},"Q":{"ha":969,"x_min":0,"x_max":0,"o":"m 57 397 b 401 -32 57 189 211 -32 b 639 44 486 -32 576 -6 b 756 -62 689 28 715 -28 b 796 -115 771 -76 785 -108 b 803 -90 799 -106 799 -99 b 807 -121 807 -101 807 -108 b 856 -85 836 -121 856 -101 b 850 -58 856 -75 850 -68 b 851 -54 850 -57 850 -56 l 857 -54 l 865 -65 l 869 -56 b 864 -40 868 -50 865 -46 l 865 -35 l 865 -28 b 739 124 835 -14 746 100 b 901 446 863 214 899 300 b 914 490 901 461 914 474 b 883 578 914 513 908 568 l 890 585 b 878 617 889 596 883 606 l 881 625 b 632 958 824 790 790 871 b 478 1000 589 981 538 1000 b 244 899 408 1000 329 975 b 57 397 107 776 57 549 z m 182 393 b 483 890 182 469 229 890 b 836 436 658 890 836 593 b 828 325 836 400 839 360 b 803 271 822 306 804 292 l 797 261 b 760 222 782 251 779 228 l 756 218 b 719 196 756 210 726 204 b 703 182 713 192 707 188 b 682 185 696 176 689 179 b 636 256 661 204 636 238 b 600 332 636 285 600 299 b 589 356 600 339 596 353 b 576 342 585 350 581 346 b 568 351 576 346 574 351 b 557 339 563 351 560 342 b 496 271 518 300 496 333 b 568 139 496 232 561 149 b 579 111 574 131 579 121 b 433 61 579 74 488 61 b 182 393 250 61 182 239 z "},"R":{"ha":863,"x_min":0,"x_max":0,"o":"m 651 719 b 413 964 651 842 531 944 b 325 971 388 968 357 971 b 143 932 258 971 188 960 l 144 928 b 124 917 139 922 126 922 l 136 907 b 94 857 124 889 94 881 b 149 824 94 825 149 833 b 142 611 149 753 142 682 b 133 438 142 554 133 496 l 133 351 b 140 267 133 324 140 296 b 135 218 140 250 135 235 b 143 54 135 164 143 110 b 153 17 143 36 135 31 b 172 0 160 13 169 10 l 176 0 b 214 43 175 38 197 24 b 244 121 232 65 244 93 b 228 264 244 169 228 215 b 231 369 228 299 231 333 b 240 761 231 499 240 631 b 249 833 240 786 249 810 b 289 868 249 863 264 868 b 517 793 369 868 456 847 b 563 725 540 774 546 739 b 575 671 568 707 575 690 b 439 469 575 583 526 469 b 397 478 425 469 411 472 b 339 444 353 485 344 472 b 339 425 339 438 340 431 b 328 400 338 415 329 410 b 339 386 326 393 333 388 l 344 390 l 354 392 b 400 351 375 389 386 364 b 494 267 432 322 465 297 b 729 13 533 226 694 18 l 731 13 b 743 40 732 19 733 42 b 768 44 751 39 760 46 b 792 29 778 43 782 32 b 804 31 796 31 800 31 b 822 19 811 29 814 21 b 846 24 831 18 838 24 l 849 28 b 697 174 811 83 743 125 b 503 413 649 228 551 381 b 651 719 643 510 651 650 z "},"S":{"ha":936,"x_min":0,"x_max":0,"o":"m 735 876 b 732 893 735 882 733 888 l 726 901 l 739 918 l 735 922 b 735 935 736 925 739 932 l 725 924 l 719 924 b 690 932 711 924 694 924 b 568 968 649 940 613 968 b 493 972 543 968 518 972 b 196 900 390 972 290 940 l 194 900 b 94 821 157 889 111 857 b 76 796 89 811 85 804 b 56 697 54 769 56 731 b 61 668 56 688 56 678 b 68 647 67 663 67 654 b 96 594 72 626 88 611 b 776 288 189 410 776 440 b 739 215 776 258 761 233 b 350 108 626 128 489 108 b 175 144 283 108 236 113 l 171 143 l 161 135 b 132 131 151 136 142 133 l 131 129 b 126 110 128 122 126 117 b 135 96 126 104 131 99 b 182 53 144 79 163 58 l 182 51 b 349 3 213 38 317 3 b 482 10 393 3 438 10 b 494 7 486 10 490 8 l 497 7 b 508 13 500 10 504 13 b 518 10 511 13 515 11 l 518 6 l 513 0 l 521 0 b 554 7 533 0 544 4 b 878 264 669 36 878 121 b 876 285 878 267 876 283 b 467 540 831 446 615 515 b 453 544 461 539 457 540 b 424 549 446 546 428 544 b 303 574 403 549 317 564 b 221 592 276 579 244 579 b 192 614 210 599 201 608 b 161 654 168 629 174 631 b 299 844 161 724 221 840 b 501 890 363 872 432 890 b 618 876 540 890 581 888 b 694 858 643 869 668 858 b 726 860 704 858 715 858 b 735 876 731 864 735 869 z "},"T":{"ha":881,"x_min":0,"x_max":0,"o":"m 850 931 b 826 943 844 932 826 935 b 849 964 826 951 843 958 l 849 969 b 813 972 838 972 825 972 b 588 958 736 972 663 958 b 496 951 557 958 526 951 b 238 950 410 951 324 950 b 189 944 221 950 206 944 b 88 938 156 944 119 950 b 56 926 76 933 67 926 b 43 906 43 926 43 915 b 35 878 43 899 47 878 l 29 874 b 139 833 54 839 99 833 b 372 836 215 833 296 836 b 383 785 385 825 383 793 b 394 564 383 711 394 638 b 374 268 394 465 378 367 b 365 43 371 193 365 118 b 393 0 365 33 382 0 b 407 4 397 0 403 1 b 439 63 440 0 414 42 l 443 68 b 443 117 443 85 443 101 b 496 556 478 199 496 460 b 489 656 496 575 494 621 b 478 825 479 715 478 760 b 492 836 478 835 485 836 b 679 857 564 836 608 839 b 757 878 701 863 739 864 l 757 879 l 744 883 l 749 888 b 781 901 760 889 774 892 b 853 928 796 904 844 914 z "},"U":{"ha":879,"x_min":0,"x_max":0,"o":"m 743 903 b 718 963 746 924 733 950 l 715 964 b 682 963 704 964 693 963 l 678 960 b 653 972 671 967 663 972 b 639 961 647 972 640 968 l 643 951 l 636 940 b 660 886 642 921 653 904 b 715 626 692 810 707 708 b 643 253 726 486 715 376 b 457 118 613 200 524 118 b 210 588 253 118 226 440 b 204 704 206 624 204 667 b 172 847 204 729 194 847 b 140 849 153 847 165 842 b 75 818 107 856 75 835 b 88 807 75 810 88 814 b 75 794 88 797 75 803 b 69 688 75 758 69 722 b 76 556 69 643 69 599 b 101 385 85 499 89 442 b 449 0 140 211 239 0 b 464 14 457 0 453 14 b 808 511 654 14 808 321 b 743 903 808 636 788 785 z "},"V":{"ha":997,"x_min":0,"x_max":0,"o":"m 996 1022 l 994 1024 l 990 1024 l 986 1022 b 865 926 933 986 903 956 b 578 567 785 865 611 654 b 524 451 563 526 539 492 b 432 208 492 371 467 286 b 297 503 368 296 353 417 l 179 724 b 115 901 146 790 132 831 b 93 932 111 914 106 925 b 71 922 90 926 78 922 b 64 935 75 929 76 935 b 24 853 38 935 18 872 b 36 792 29 835 36 808 b 90 656 36 779 83 667 b 313 207 151 521 267 363 b 369 57 328 156 351 108 b 425 0 379 31 404 0 b 471 15 442 0 454 15 b 490 3 476 15 478 3 b 547 138 511 3 539 114 b 660 442 569 201 640 393 b 824 717 701 539 747 639 l 825 721 l 821 719 b 692 544 768 668 736 617 l 690 544 b 844 810 717 646 801 740 b 971 957 876 861 926 915 b 992 988 982 967 988 978 b 988 1000 990 989 988 999 b 996 1015 988 1007 990 1013 z "},"W":{"ha":1289,"x_min":0,"x_max":0,"o":"m 1232 986 b 1144 796 1213 990 1161 840 b 1128 768 1142 786 1133 778 b 1104 675 1117 742 1128 694 b 1078 538 1089 631 1085 583 b 1014 128 1057 404 1035 261 b 889 288 992 143 910 260 b 740 476 854 332 792 458 b 722 469 736 472 729 469 b 703 475 715 469 710 475 b 689 457 693 475 692 464 b 633 372 678 424 656 397 b 401 114 557 278 460 228 b 154 906 371 264 235 804 b 100 938 143 918 118 938 b 43 896 78 938 43 925 b 47 878 43 889 44 883 b 222 375 125 717 165 544 b 319 35 247 301 283 83 b 385 4 338 13 356 4 b 443 32 418 4 406 8 b 581 161 497 68 536 114 b 738 338 635 218 681 283 b 789 260 758 315 772 286 b 1025 13 815 215 960 13 b 1128 250 1103 13 1121 196 b 1142 356 1133 285 1135 321 b 1153 419 1144 376 1150 397 b 1172 543 1158 460 1172 501 b 1178 571 1172 553 1175 561 b 1194 719 1189 619 1194 669 b 1206 828 1194 757 1200 790 b 1217 879 1215 843 1217 863 b 1244 986 1217 915 1233 951 b 1232 986 1247 994 1242 990 z "},"X":{"ha":931,"x_min":0,"x_max":0,"o":"m 714 744 l 721 754 b 761 818 733 776 746 797 b 760 824 763 821 764 822 b 760 831 756 825 758 828 b 775 856 764 839 771 847 b 775 875 779 863 782 868 b 775 881 774 876 775 879 b 793 913 782 892 788 903 b 807 944 799 924 804 933 b 824 979 808 954 814 974 b 828 992 828 982 828 986 b 821 1001 828 996 826 999 b 803 1025 813 1004 806 1015 b 796 1026 801 1031 797 1032 b 753 967 796 1018 761 982 b 674 856 729 926 700 894 b 492 606 615 771 554 688 b 178 960 422 690 269 890 b 146 968 171 965 158 968 b 107 940 125 968 103 960 b 135 892 101 914 117 907 b 304 726 189 851 263 781 b 450 547 351 665 401 608 b 285 326 396 474 343 397 b 75 65 217 246 151 139 b 57 31 67 57 57 44 b 57 -8 57 25 32 -21 b 96 18 71 -1 81 10 l 88 0 b 267 142 143 31 228 99 l 253 107 b 526 447 338 186 467 347 b 769 85 582 385 769 119 b 828 0 769 69 810 18 b 865 57 839 -12 886 10 b 728 261 835 124 768 189 b 569 503 694 322 582 453 b 714 725 607 569 671 654 b 721 735 717 729 718 732 z "},"Y":{"ha":840,"x_min":0,"x_max":0,"o":"m 367 86 b 363 25 367 67 363 46 b 415 -29 363 -10 379 -29 b 446 39 440 -29 443 21 b 458 78 456 50 458 64 b 453 365 458 146 453 297 b 447 506 453 411 438 465 b 804 921 544 635 799 817 b 813 936 810 925 813 931 b 800 958 813 946 810 956 l 790 954 b 771 969 786 960 779 969 b 700 932 756 969 711 942 b 556 769 647 882 607 819 b 507 717 538 753 525 733 b 381 586 465 681 414 631 b 107 924 292 700 188 801 b 71 951 99 936 89 951 b 58 949 67 951 63 950 b 28 929 36 949 28 940 b 57 875 28 907 47 889 b 240 632 115 797 172 703 b 356 421 300 572 356 513 b 350 260 350 368 350 314 b 367 86 350 201 367 144 z "},"Z":{"ha":957,"x_min":0,"x_max":0,"o":"m 838 85 b 871 128 886 85 911 124 b 761 131 843 136 785 131 b 631 129 719 131 674 129 b 397 122 554 129 474 122 b 246 115 342 122 297 115 b 468 415 301 228 386 322 b 724 774 565 525 653 644 b 836 929 740 804 801 929 b 864 946 847 929 864 932 b 850 957 864 953 857 957 l 840 950 l 836 951 b 806 967 829 960 818 967 b 604 953 740 967 674 953 b 550 947 586 953 568 947 b 422 954 508 947 465 954 b 204 951 350 954 278 951 b 114 942 197 951 146 949 b 96 910 89 936 113 914 b 119 872 86 908 92 874 l 131 872 b 208 864 194 872 183 864 b 306 868 243 864 272 868 b 376 861 326 868 350 867 b 451 864 403 856 425 864 b 526 860 478 864 501 860 b 694 868 556 860 683 864 b 575 699 665 849 604 740 b 381 438 518 617 407 478 b 189 206 360 408 224 239 b 85 64 175 193 113 108 b 131 -4 57 21 93 -4 b 221 -6 153 -4 171 -6 b 253 1 232 -6 242 1 b 294 -1 267 1 281 -1 b 303 -1 297 -1 300 -1 l 319 3 b 329 3 322 3 326 3 b 561 24 406 3 488 24 b 615 25 579 24 597 25 b 665 24 626 25 647 25 b 772 43 710 26 753 35 l 722 50 b 838 85 746 68 808 85 z "},"z":{"ha":674,"x_min":0,"x_max":0,"o":"m 514 94 b 456 108 494 100 476 108 b 192 88 379 108 358 106 b 172 89 186 88 179 88 b 188 104 176 92 181 96 b 550 550 246 189 485 499 b 546 581 565 561 563 576 b 517 576 536 583 524 582 b 485 585 506 579 496 585 b 468 582 479 585 472 585 b 433 574 458 575 444 574 b 222 603 319 574 290 603 b 174 596 206 603 190 596 b 124 614 157 596 135 604 b 101 617 113 622 108 619 b 75 597 92 611 82 606 b 75 569 64 586 71 576 b 326 483 111 514 235 483 b 401 493 356 483 382 486 b 253 314 353 446 297 367 b 96 100 196 246 154 167 b 39 47 78 79 57 65 b 17 -14 21 31 17 11 b 46 -36 17 -29 32 -36 b 57 -35 50 -36 53 -35 b 72 -40 61 -37 67 -40 b 94 -22 79 -40 88 -26 b 135 -11 107 -15 121 -22 b 167 -6 146 -7 156 -7 b 504 11 293 21 390 11 b 550 18 519 11 533 18 b 618 38 576 18 611 38 b 657 57 635 38 643 53 b 690 71 664 60 690 63 b 658 79 690 79 665 79 b 650 79 656 79 653 79 l 635 76 b 514 94 593 76 553 82 z "},"y":{"ha":649,"x_min":0,"x_max":0,"o":"m 210 -337 b 244 -306 224 -329 231 -315 b 264 -294 249 -300 256 -296 b 310 -240 282 -265 282 -261 b 326 -222 319 -233 321 -232 b 397 -75 346 -189 367 -93 b 585 404 438 -24 582 342 b 621 539 586 451 618 493 b 615 565 621 549 615 556 b 604 608 617 583 626 606 b 518 553 557 615 531 583 b 454 358 494 492 475 422 b 363 103 426 272 396 188 b 350 88 360 97 358 88 b 153 547 281 88 165 471 b 132 585 150 563 151 581 b 97 615 122 596 114 619 b 104 603 100 611 103 608 b 78 608 94 607 86 608 b 29 539 51 608 31 590 b 111 274 28 501 71 357 b 318 29 149 194 253 29 b 332 22 324 29 332 32 b 226 -249 332 3 242 -219 b 210 -332 224 -276 211 -303 b 210 -337 210 -333 210 -336 z "},"x":{"ha":756,"x_min":0,"x_max":0,"o":"m 679 8 b 383 249 679 36 393 196 b 715 599 379 272 682 563 b 757 635 728 611 744 621 b 775 681 767 646 775 665 b 728 700 775 688 735 700 b 650 656 708 700 660 674 b 563 558 628 614 592 592 b 497 488 542 533 521 508 b 485 474 494 482 490 478 b 346 332 439 432 379 386 b 322 308 340 325 332 308 b 156 572 290 308 165 529 b 125 596 153 588 136 583 b 103 607 117 604 110 607 b 53 589 88 607 72 593 b 44 536 35 585 47 554 b 103 447 40 496 83 478 b 251 253 144 379 197 308 b 72 28 226 189 72 82 b 117 -12 72 4 96 -12 b 261 108 146 -12 242 81 b 297 168 274 128 282 150 b 311 178 301 172 306 178 b 404 104 322 178 390 115 b 532 32 443 74 486 47 b 558 21 540 29 550 26 b 604 -3 574 13 586 -3 b 611 -3 607 -3 608 -3 b 626 -8 615 -6 621 -8 b 656 0 638 -8 646 0 b 679 8 664 0 679 -8 z "},"w":{"ha":963,"x_min":0,"x_max":0,"o":"m 885 421 b 956 597 906 482 935 538 l 956 604 b 932 617 954 618 940 613 l 925 615 b 904 600 917 615 910 606 b 892 608 900 606 896 608 b 860 574 881 608 871 581 b 810 468 840 540 831 501 b 681 104 746 368 713 138 l 679 107 l 679 104 b 650 213 664 133 660 179 b 592 374 635 268 608 318 b 551 510 578 418 563 464 b 539 553 549 519 539 549 b 544 569 539 558 540 565 b 546 579 546 572 546 576 l 546 586 l 532 594 l 524 594 l 521 592 b 478 599 507 596 493 599 b 243 208 419 599 301 246 b 242 229 242 215 242 222 b 244 261 242 240 244 250 b 242 281 244 268 243 274 b 133 600 215 408 206 488 b 126 606 132 603 129 606 b 119 599 122 606 119 601 l 119 594 l 118 589 l 113 592 b 82 625 108 600 90 625 b 71 618 76 625 72 622 l 67 614 l 56 622 b 29 611 46 621 38 615 b 42 581 32 600 42 592 b 39 564 42 575 39 569 b 68 481 38 549 64 500 b 118 235 92 401 106 318 b 151 47 126 172 133 108 b 197 -21 157 29 172 -21 b 224 -12 207 -21 214 -12 b 247 -6 239 -12 246 -22 b 368 261 251 63 339 199 b 451 428 381 286 435 421 b 685 -19 493 367 622 -19 b 774 100 701 -19 765 85 b 800 206 792 135 778 171 b 865 367 833 256 840 314 b 885 421 874 385 879 403 z "},"v":{"ha":647,"x_min":0,"x_max":0,"o":"m 661 664 b 554 575 621 640 590 604 b 250 238 433 481 315 372 b 231 231 244 226 238 211 b 86 581 206 296 119 581 b 39 599 64 581 54 599 b 22 583 31 599 22 590 b 28 572 22 579 25 575 b 67 485 46 544 57 515 b 165 163 100 376 142 272 b 188 54 174 126 188 92 b 185 38 188 49 185 43 b 219 -24 188 7 199 -6 b 265 -49 233 -36 246 -49 b 306 75 292 -49 306 56 b 371 232 306 92 358 213 b 468 385 400 285 438 333 b 557 510 494 429 521 472 b 667 664 578 532 663 642 z "},"u":{"ha":594,"x_min":0,"x_max":0,"o":"m 185 397 b 115 613 185 447 178 613 b 60 594 104 613 71 608 b 65 582 54 586 57 583 b 86 567 75 579 81 581 b 92 514 93 553 92 529 b 82 410 92 478 85 444 b 63 165 75 328 63 247 b 181 3 63 103 103 3 b 343 71 238 3 317 47 b 379 94 350 76 371 94 b 392 56 386 94 390 75 b 444 -67 396 25 413 -64 b 478 -24 472 -69 478 -47 b 483 99 478 10 471 69 b 494 124 486 107 493 115 b 510 324 514 186 503 258 b 524 419 514 360 524 383 b 539 576 513 524 539 508 b 528 604 539 585 538 601 b 389 196 424 626 393 306 b 389 158 388 183 389 171 b 213 93 389 135 238 93 b 169 146 181 93 169 119 b 185 397 169 231 185 314 z "},"t":{"ha":593,"x_min":0,"x_max":0,"o":"m 307 769 l 303 764 b 299 746 304 760 306 746 l 294 746 l 286 754 l 283 750 b 276 699 283 732 276 715 b 244 585 276 676 271 585 b 183 588 215 585 213 588 b 50 572 150 588 90 582 b 14 536 36 568 14 561 b 122 500 14 504 94 500 b 206 500 160 500 168 506 b 231 479 214 499 233 501 b 210 335 231 442 217 372 b 196 210 204 294 196 251 b 329 -3 196 118 214 -3 b 518 104 407 -3 492 76 b 508 119 526 114 524 119 b 467 104 493 119 481 108 b 360 86 432 94 396 86 b 296 251 293 86 296 208 b 322 476 296 315 314 413 b 339 503 324 485 326 501 b 599 564 400 508 550 539 l 593 569 b 564 572 583 571 575 572 l 547 568 b 539 568 544 568 542 568 b 497 569 525 568 511 568 b 531 581 510 571 522 572 b 419 588 524 588 435 588 b 343 579 392 588 364 578 l 343 593 b 350 640 344 610 350 625 b 344 722 350 668 344 694 b 307 779 344 757 333 761 z "},"s":{"ha":504,"x_min":0,"x_max":0,"o":"m 397 614 b 343 604 376 613 361 606 b 333 601 339 604 336 604 b 301 589 322 596 314 589 b 269 572 293 586 279 578 b 267 569 268 571 267 571 b 199 503 244 551 211 528 b 188 432 185 472 185 449 b 206 393 189 417 197 406 b 267 326 222 367 243 349 b 357 232 299 297 328 264 b 389 167 374 214 389 193 b 368 126 389 149 379 138 b 358 114 365 122 363 118 b 356 113 358 114 357 113 l 350 108 b 301 82 350 103 310 82 b 294 79 300 81 297 79 b 246 64 289 74 253 64 b 239 64 243 65 240 64 b 222 61 233 63 228 60 b 210 58 218 58 214 58 b 196 56 206 56 200 56 b 190 54 194 54 192 54 b 188 53 189 53 189 53 b 165 50 183 51 167 50 b 150 49 160 50 156 47 b 110 57 136 47 122 51 b 76 75 97 64 93 72 b 60 72 71 75 64 75 b 47 60 54 71 47 65 b 40 36 47 51 43 44 b 67 7 33 18 53 10 b 125 -10 88 4 94 -8 b 144 -11 132 -10 138 -8 b 247 -8 150 -14 239 -11 b 344 6 274 -1 313 -3 b 367 14 353 7 360 10 b 386 28 375 18 381 22 b 401 36 390 32 396 33 b 426 57 411 40 418 49 b 450 90 432 63 449 83 b 458 113 453 97 456 106 b 461 147 464 129 461 129 b 422 263 461 181 429 251 b 413 275 419 267 415 269 b 408 283 411 278 410 281 b 399 294 404 288 401 292 b 393 300 397 297 396 299 b 388 308 392 303 389 306 b 378 321 385 313 381 317 b 261 442 347 360 274 404 b 264 476 258 451 258 468 b 408 571 283 514 367 563 b 429 571 415 572 422 571 b 449 592 439 571 447 582 b 439 608 450 599 444 604 b 428 611 436 611 432 610 b 418 614 425 613 424 614 b 397 614 411 614 404 614 z "},"r":{"ha":560,"x_min":0,"x_max":0,"o":"m 546 601 b 493 610 531 608 513 610 b 199 550 407 610 265 596 b 104 653 175 610 185 632 b 63 638 92 657 64 654 b 93 476 60 599 90 531 b 104 322 96 431 97 408 b 100 221 107 283 103 258 b 117 11 94 147 107 71 b 156 -18 119 -7 139 -18 b 181 0 168 -18 179 -12 b 197 82 182 33 196 56 b 196 103 199 89 196 96 b 207 185 197 131 206 157 b 213 300 211 239 197 236 b 208 431 217 357 210 407 b 490 525 288 483 393 517 b 525 543 506 526 514 532 b 572 554 540 554 556 553 b 578 558 575 554 578 556 b 546 601 582 568 554 597 z "},"q":{"ha":667,"x_min":0,"x_max":0,"o":"m 839 -222 b 683 -256 793 -240 733 -256 b 621 -193 646 -256 629 -225 b 606 122 603 -128 606 118 b 606 217 606 138 606 211 b 601 347 606 258 604 306 b 593 472 599 389 596 431 b 592 500 592 481 592 489 b 588 567 592 522 589 544 b 571 638 585 590 575 614 b 564 643 571 639 568 643 b 507 638 551 647 517 643 b 508 631 504 636 504 633 l 515 625 l 514 625 b 63 268 354 596 63 464 b 518 47 63 100 379 47 b 540 13 535 47 542 33 b 533 -126 538 -25 533 -76 b 651 -331 533 -208 546 -331 b 701 -321 667 -331 683 -326 b 839 -222 747 -303 811 -267 z m 535 122 b 515 100 535 111 526 100 b 464 107 503 100 486 103 b 168 278 399 119 168 186 b 439 538 168 399 335 497 b 490 550 451 543 472 550 b 518 532 503 550 514 546 b 531 468 526 511 531 492 l 531 444 b 529 393 531 426 531 410 b 528 342 528 376 528 358 b 532 232 528 304 529 268 b 535 122 533 196 535 160 z "},"p":{"ha":699,"x_min":0,"x_max":0,"o":"m 360 604 b 113 551 308 604 151 569 b 50 481 65 528 78 513 b 26 454 44 472 26 464 b 76 417 26 435 60 417 b 107 431 92 417 100 417 b 133 296 126 428 133 315 b 126 53 133 215 136 133 b 124 -171 118 -24 124 -96 b 133 -254 124 -187 118 -246 b 168 -276 146 -261 165 -257 l 171 -281 b 194 -246 190 -281 194 -261 b 197 -108 194 -199 188 -156 b 206 -93 199 -96 200 -100 b 225 50 222 -75 211 26 b 631 399 365 90 631 182 b 360 604 631 567 497 604 z m 550 354 b 240 113 550 263 336 131 b 222 131 228 111 222 110 b 225 201 221 157 225 171 b 199 450 226 292 218 378 b 397 496 204 481 314 496 b 550 354 472 496 550 432 z "},"o":{"ha":721,"x_min":0,"x_max":0,"o":"m 651 301 b 376 625 651 435 532 625 b 285 615 347 625 313 624 b 250 563 256 606 239 588 b 283 544 256 550 269 542 b 343 556 304 550 321 556 b 524 299 444 556 524 421 b 253 79 524 169 375 79 b 160 188 206 79 160 140 b 278 446 160 278 229 392 b 265 499 292 463 293 499 b 238 490 258 499 249 496 b 68 188 147 439 68 308 b 271 -15 68 35 174 -22 b 651 301 440 -3 651 111 z "},"n":{"ha":649,"x_min":0,"x_max":0,"o":"m 586 44 b 575 225 586 118 567 146 b 576 329 579 260 576 294 b 574 443 576 358 574 419 b 397 606 574 524 467 606 b 167 506 335 606 192 565 b 143 576 154 508 158 568 b 96 588 129 583 113 588 b 61 543 69 588 61 575 b 65 488 60 525 65 506 b 67 389 65 454 67 421 l 67 194 b 71 135 67 175 71 156 b 67 71 71 114 67 93 b 97 -6 67 51 67 -6 b 126 1 107 -6 115 1 b 147 -4 133 1 140 -3 l 154 0 b 151 146 154 44 151 111 b 161 347 151 221 161 272 b 167 407 161 357 164 393 b 397 526 214 471 311 543 b 486 340 479 510 474 404 b 503 188 499 276 503 253 b 508 85 503 153 508 119 b 567 -3 508 49 521 -3 b 586 44 588 -3 586 31 z "},"m":{"ha":833,"x_min":0,"x_max":0,"o":"m 776 446 b 613 603 772 533 704 607 b 449 501 565 601 483 536 b 325 600 439 535 404 600 b 221 571 297 600 246 583 b 150 528 196 560 176 539 b 147 526 150 528 149 526 b 129 511 140 522 138 514 b 122 515 125 508 122 508 b 125 546 121 525 122 536 b 119 579 129 558 128 569 b 113 579 117 582 115 583 b 93 571 107 574 101 568 b 69 568 92 571 71 569 b 47 540 63 560 53 551 b 19 413 28 500 21 456 b 21 261 18 361 19 311 b 28 122 22 215 25 168 b 32 83 29 110 28 96 b 47 28 38 65 46 47 b 51 21 47 25 50 22 b 64 7 57 18 64 13 b 72 -1 64 1 67 0 b 113 3 83 -4 103 4 b 117 8 115 3 117 7 b 117 31 114 17 117 24 b 114 122 117 61 115 92 b 110 254 113 167 111 210 b 108 310 108 272 107 292 b 107 371 110 331 110 350 b 121 406 106 385 110 397 b 128 414 124 408 126 411 b 251 515 135 425 229 507 b 288 528 264 518 274 526 b 311 532 296 529 303 532 b 326 526 317 532 321 531 b 346 511 333 522 340 518 b 386 388 368 479 383 426 b 396 253 389 342 399 299 b 404 185 394 229 403 208 b 443 118 404 172 425 114 b 446 124 446 119 446 122 b 444 153 444 133 444 143 b 449 161 444 156 444 160 b 456 174 454 164 456 168 b 458 197 457 182 457 189 b 460 226 458 207 456 217 b 463 242 463 232 463 236 b 463 315 463 267 464 290 b 460 428 463 339 463 403 b 582 522 497 458 539 497 b 622 540 594 531 608 536 b 671 528 640 547 657 538 b 704 475 689 515 699 496 b 718 390 708 464 717 403 b 718 308 721 363 719 336 b 714 224 718 279 715 251 b 708 125 714 214 708 125 b 703 83 703 111 706 97 b 700 31 701 65 701 47 b 704 -37 699 7 697 -15 b 713 -57 707 -44 707 -51 b 714 -47 715 -54 714 -50 b 721 -40 713 -42 713 -37 b 725 -37 724 -40 726 -39 b 726 -21 724 -31 728 -26 b 744 40 725 0 740 19 b 753 68 746 50 744 61 b 754 76 754 69 754 74 b 760 115 756 89 757 103 b 771 224 767 147 776 192 b 774 276 768 240 771 258 b 775 300 775 283 772 292 b 779 346 779 315 781 331 b 778 382 778 358 776 369 b 776 446 782 403 778 425 z "},"l":{"ha":243,"x_min":0,"x_max":0,"o":"m 186 604 b 186 647 185 626 188 629 b 82 972 183 736 176 925 l 75 963 b 63 971 72 967 68 969 l 61 969 b 56 958 61 965 61 958 b 54 949 54 956 54 951 b 74 911 54 935 68 924 b 83 838 82 888 83 863 l 88 735 b 76 442 90 636 72 540 b 51 125 81 338 47 231 b 56 86 53 110 61 100 b 97 0 58 67 69 0 b 136 99 126 0 132 72 b 153 272 142 156 156 213 b 167 381 151 308 168 343 b 171 410 167 390 168 400 b 183 563 182 460 186 511 b 181 576 183 567 181 572 b 186 604 179 586 186 594 z "},"k":{"ha":642,"x_min":0,"x_max":0,"o":"m 100 0 b 121 43 122 -1 122 28 b 144 149 117 71 144 115 b 168 258 144 175 168 218 b 193 564 168 358 193 461 b 186 601 193 576 186 589 b 200 739 186 633 200 731 b 197 775 200 751 197 763 b 204 822 197 792 204 806 b 132 943 204 882 190 931 b 94 964 115 947 114 964 b 85 954 89 964 85 958 b 89 881 85 929 89 906 b 82 679 89 814 82 746 b 86 649 82 669 86 660 b 78 526 86 608 78 568 b 58 356 78 469 58 413 b 63 186 58 300 63 240 b 60 139 63 172 60 157 b 56 74 60 117 56 94 b 100 0 56 18 83 1 z m 449 574 b 225 399 411 493 314 413 b 199 379 214 396 199 394 b 222 269 199 354 201 285 b 265 231 239 258 251 246 b 354 154 290 200 325 181 b 651 7 396 115 579 7 b 664 21 658 7 664 14 b 590 61 664 43 617 43 b 308 278 494 125 381 186 b 372 318 338 281 351 299 b 518 554 438 378 518 460 b 511 567 518 560 511 561 b 497 619 511 578 514 619 b 449 574 471 619 460 596 z "},"j":{"ha":257,"x_min":0,"x_max":0,"o":"m 228 799 b 256 822 235 808 246 815 b 303 881 274 836 294 858 b 311 900 304 888 308 896 b 311 922 315 910 319 915 b 297 918 307 925 301 922 b 253 886 283 904 267 897 b 163 825 222 865 192 846 b 124 803 150 817 139 807 b 76 771 108 790 93 782 b 110 714 43 749 86 715 b 186 747 142 711 165 725 b 228 799 201 763 214 781 z m 15 -149 b 3 -160 11 -153 7 -157 b -21 -176 -4 -167 -12 -172 b -24 -178 -21 -176 -22 -178 b -46 -193 -29 -186 -36 -192 b -51 -196 -47 -196 -49 -197 b -58 -200 -53 -200 -56 -200 b -64 -201 -60 -201 -62 -203 b -112 -219 -79 -211 -94 -218 b -129 -221 -118 -221 -124 -222 b -160 -231 -139 -225 -149 -231 b -164 -231 -161 -231 -162 -231 b -178 -232 -169 -235 -174 -233 b -187 -232 -181 -233 -185 -233 b -200 -236 -192 -236 -196 -236 b -208 -237 -203 -237 -206 -239 b -224 -242 -212 -242 -217 -243 b -235 -243 -228 -243 -232 -243 b -250 -249 -240 -244 -244 -247 b -207 -265 -236 -257 -222 -261 b -196 -292 -186 -271 -185 -279 b -185 -292 -192 -296 -187 -292 b -154 -286 -175 -289 -164 -286 b -117 -299 -142 -286 -128 -290 b -81 -307 -106 -307 -94 -311 b -64 -312 -74 -306 -68 -308 b -44 -317 -58 -318 -51 -319 b 40 -292 -17 -308 13 -300 b 50 -287 44 -290 47 -289 b 160 -157 82 -261 146 -197 b 178 -81 167 -132 174 -107 b 189 85 188 -26 186 29 b 178 372 194 192 188 264 b 167 492 176 383 168 490 b 151 550 163 511 150 531 b 147 578 153 561 151 569 b 139 593 144 583 140 588 b 94 626 133 615 118 625 b 81 610 82 628 76 621 b 82 579 83 600 85 589 b 79 554 79 571 79 563 b 92 431 79 513 88 472 b 104 276 96 385 101 324 b 108 214 107 242 107 249 b 99 13 111 147 110 79 b 79 -47 94 -8 89 -28 b 69 -64 78 -53 75 -60 b 69 -67 71 -65 69 -67 b 65 -75 69 -69 68 -72 b 57 -106 74 -89 63 -96 b 15 -149 46 -122 33 -139 z "},"i":{"ha":289,"x_min":0,"x_max":0,"o":"m 158 676 b 183 668 167 672 175 668 b 196 678 189 668 194 672 b 222 715 206 689 219 700 l 225 718 l 228 726 l 226 729 l 240 785 b 231 793 242 789 233 793 l 229 792 l 213 792 b 124 765 192 781 132 789 l 121 764 l 118 756 l 119 749 b 132 703 133 738 132 718 b 140 692 135 700 139 696 b 143 692 142 692 143 693 l 143 690 b 158 676 149 688 154 682 z m 117 619 b 82 636 110 626 93 633 b 56 619 65 640 51 636 b 78 528 61 594 75 538 b 93 376 92 479 86 428 b 103 278 97 344 100 311 b 106 207 106 254 107 231 b 104 106 104 174 104 140 b 135 -25 104 54 117 19 b 151 -28 139 -33 144 -35 b 164 1 160 -19 164 -11 b 168 17 163 7 163 14 b 181 38 179 22 181 29 b 188 54 181 43 183 49 b 192 61 189 56 190 58 b 204 294 201 131 217 210 b 196 367 203 304 196 364 b 117 619 189 424 154 588 z "},"h":{"ha":643,"x_min":0,"x_max":0,"o":"m 168 849 b 163 929 163 875 168 903 b 138 944 161 943 149 944 b 63 850 113 944 64 871 b 65 832 63 844 65 839 b 57 783 64 817 58 800 b 58 622 56 729 61 676 b 61 356 54 533 58 444 b 60 181 61 297 63 238 b 63 65 58 142 64 104 b 93 4 61 35 57 7 b 121 40 118 1 115 15 b 125 135 126 72 118 103 b 138 167 126 146 135 156 b 142 242 142 192 138 217 b 165 343 147 267 164 319 b 172 424 167 375 171 392 b 375 518 175 474 333 518 b 496 406 449 518 478 476 b 508 236 510 351 510 293 b 453 -6 504 154 481 74 b 446 -64 446 -24 442 -46 l 451 -49 b 464 -67 450 -62 457 -67 b 483 -57 472 -67 482 -62 b 525 49 493 -29 513 19 b 574 196 543 92 558 143 b 608 303 585 232 601 268 b 614 364 614 322 613 343 b 374 604 619 501 494 604 b 169 521 306 604 222 564 b 171 749 174 599 167 672 b 168 849 172 782 175 815 z "},"g":{"ha":597,"x_min":0,"x_max":0,"o":"m 426 35 b 386 -183 426 -39 424 -118 b 260 -278 361 -226 310 -268 b 168 -290 229 -285 197 -281 b 164 -301 161 -292 157 -297 b 232 -346 185 -312 210 -346 b 311 -357 238 -346 281 -357 b 408 -321 346 -357 379 -337 b 540 100 553 -240 540 -43 b 519 371 540 192 538 282 b 499 540 508 426 499 483 b 507 579 499 553 507 565 b 497 624 507 594 497 608 b 479 640 497 636 490 640 b 426 600 465 640 469 600 b 108 396 310 600 164 493 b 58 186 71 332 58 258 b 218 4 58 103 113 4 b 407 50 339 4 350 50 b 426 35 417 50 426 46 z m 156 194 b 324 469 156 325 225 396 b 397 503 338 481 383 503 b 415 458 415 503 415 471 b 422 288 415 401 422 344 b 428 124 422 233 428 179 b 347 104 428 108 360 104 b 156 194 283 104 156 106 z "},"f":{"ha":622,"x_min":0,"x_max":0,"o":"m 600 557 b 635 568 622 560 622 567 l 639 568 b 625 574 636 574 631 574 b 568 583 603 572 589 585 b 518 579 549 581 540 576 b 396 576 497 582 421 578 b 332 578 374 575 353 579 b 283 586 319 576 299 578 b 293 719 286 603 293 704 b 368 882 293 749 306 882 b 529 796 443 882 508 796 b 546 808 536 796 536 808 b 575 851 572 808 575 829 l 574 863 l 547 889 l 543 897 b 508 918 532 904 522 915 b 363 978 464 947 417 978 b 207 836 283 978 224 910 b 188 601 189 763 203 668 b 81 654 160 603 110 631 b 38 663 65 667 57 658 b 4 603 11 667 -14 618 b 51 532 24 586 24 553 b 199 483 71 518 174 486 b 200 111 203 444 211 179 b 189 72 197 99 190 86 b 242 10 186 44 213 10 b 260 15 247 10 254 11 b 272 8 264 11 268 8 b 288 35 282 8 288 24 b 306 113 299 40 304 101 b 300 469 329 290 294 376 b 418 485 329 471 390 472 b 447 511 436 493 421 508 b 490 514 461 511 472 514 b 531 535 506 514 517 529 b 583 546 547 543 567 539 b 600 557 589 549 596 556 z "},"e":{"ha":599,"x_min":0,"x_max":0,"o":"m 460 536 b 318 603 460 593 358 603 b 39 340 179 603 39 504 b 381 1 39 140 171 1 b 588 64 440 1 588 18 b 565 82 588 74 576 82 b 542 72 557 82 549 76 b 396 58 493 81 446 58 b 294 111 375 58 300 90 l 297 115 b 326 188 324 126 304 171 b 447 496 358 293 401 394 b 460 536 454 511 460 526 z m 304 321 b 253 129 278 240 260 201 b 161 332 199 158 161 251 b 379 522 161 461 250 521 b 304 321 378 475 336 417 z "},"d":{"ha":631,"x_min":0,"x_max":0,"o":"m 510 1085 b 496 1026 497 1085 497 1036 b 454 600 472 971 454 674 b 375 618 429 610 403 618 b 47 251 208 618 47 418 b 238 11 47 124 122 11 b 432 90 314 11 406 68 b 440 103 440 97 438 97 b 464 119 450 108 456 111 l 464 121 l 464 119 b 468 94 467 111 467 103 b 499 -33 474 51 488 8 b 517 -51 501 -43 504 -51 b 539 -29 531 -51 536 -42 l 544 -33 l 547 -33 l 550 -26 b 528 126 543 25 529 75 b 558 499 529 250 558 371 b 551 949 558 549 569 939 l 549 956 b 551 1038 550 982 551 1010 l 549 1044 b 543 1056 546 1047 543 1051 b 517 1076 543 1067 525 1072 b 510 1085 521 1082 514 1085 z m 457 153 b 263 88 428 125 299 88 b 160 197 193 88 160 139 b 425 572 160 371 296 572 b 451 553 436 572 451 565 b 446 313 451 474 446 393 b 457 153 446 276 444 183 z "},"c":{"ha":489,"x_min":0,"x_max":0,"o":"m 113 90 b 194 35 136 90 164 51 b 349 -19 238 11 299 -19 b 369 -10 357 -19 361 -10 b 374 -11 371 -10 372 -11 l 382 -12 b 386 -14 383 -14 385 -14 b 392 -3 392 -14 392 -7 b 336 21 392 10 347 18 b 224 101 281 33 265 67 b 142 260 176 140 146 204 b 251 469 136 346 189 426 b 425 535 325 518 353 529 b 447 560 440 536 449 542 b 449 582 447 568 449 575 b 371 621 449 592 428 621 b 325 608 356 621 340 613 b 56 288 181 567 60 449 b 113 90 54 235 82 90 z "},"b":{"ha":638,"x_min":0,"x_max":0,"o":"m 193 961 b 161 986 200 985 171 986 b 118 968 144 986 129 974 b 81 867 93 958 86 928 b 65 510 71 754 65 624 b 69 338 65 461 69 385 b 88 63 72 246 72 153 b 128 11 90 40 101 11 b 147 31 140 11 147 17 b 147 50 147 38 146 43 b 163 67 151 69 163 57 b 164 115 163 83 164 99 b 161 153 164 128 161 140 b 185 229 161 185 185 215 b 181 401 185 286 181 343 b 188 471 181 415 188 456 b 185 654 188 532 185 593 b 194 858 185 703 194 808 b 193 961 194 896 183 922 z m 596 344 b 279 600 596 513 425 600 b 222 585 268 600 222 600 b 303 521 222 551 272 521 b 481 365 386 521 481 457 b 215 10 481 231 318 83 b 111 -60 181 -15 144 -35 l 110 -65 b 128 -69 115 -68 121 -69 b 201 -36 149 -69 171 -36 b 219 -32 206 -36 215 -33 b 519 171 313 7 454 89 b 596 344 538 193 596 272 z "},"a":{"ha":747,"x_min":0,"x_max":0,"o":"m 326 604 b 171 518 260 604 215 560 b 56 221 92 442 56 332 b 347 22 56 47 218 22 b 385 32 360 22 371 32 b 457 46 410 32 435 33 b 506 67 472 54 486 67 b 550 93 522 67 550 71 b 540 103 550 99 546 103 b 529 101 536 103 533 103 b 514 104 524 103 518 104 b 385 90 469 104 428 90 b 167 236 274 90 167 99 b 353 510 167 367 264 510 b 415 515 374 510 393 515 b 529 288 450 515 513 324 b 717 -10 556 229 654 18 b 735 -26 721 -17 728 -22 b 751 6 743 -19 751 -6 b 722 71 751 18 728 53 b 571 428 685 190 640 322 b 396 594 557 496 461 594 b 326 604 372 594 344 604 z m 300 283 b 356 228 300 250 322 228 b 411 283 389 228 411 250 b 356 340 411 318 389 340 b 300 283 322 340 300 318 z "},",":{"ha":242,"x_min":0,"x_max":0,"o":"m 32 -90 b 51 -100 28 -106 42 -107 b 124 -28 76 -83 103 -54 b 171 53 143 -3 171 19 b 129 103 171 86 150 103 b 97 78 115 103 101 94 b 76 -15 86 42 96 17 b 32 -90 71 -25 35 -79 z "},".":{"ha":249,"x_min":0,"x_max":0,"o":"m 114 -3 b 138 -11 121 -7 128 -11 b 172 35 146 -11 169 26 l 175 38 b 178 64 176 46 178 56 b 147 101 178 85 171 101 b 75 83 132 101 82 101 l 71 76 l 72 69 b 86 22 86 58 85 39 b 94 14 89 21 92 17 b 114 -3 101 8 108 4 z "},"!":{"ha":261,"x_min":0,"x_max":0,"o":"m 88 611 b 82 458 85 561 82 510 b 88 349 82 422 88 385 b 83 246 88 314 83 281 b 83 208 83 229 83 217 b 115 169 85 194 96 169 b 150 207 132 168 132 207 b 164 213 158 207 160 203 b 190 756 185 254 190 665 b 164 928 185 814 164 868 b 108 974 164 944 124 974 b 76 822 81 974 75 903 b 88 611 76 733 88 633 z m 114 -3 b 138 -11 121 -7 128 -11 b 172 35 146 -11 169 26 l 175 38 b 178 64 176 46 178 56 b 147 101 178 85 171 101 b 75 83 132 101 82 101 l 71 76 l 72 69 b 86 22 86 58 85 39 b 94 14 89 21 92 17 b 114 -3 101 8 108 4 z "},"'":{"ha":228,"x_min":0,"x_max":0,"o":"m 57 754 b 68 744 57 747 63 744 b 147 846 101 744 138 821 b 171 936 158 875 178 904 b 125 979 163 968 144 979 b 72 933 99 979 71 957 b 79 839 71 896 88 875 b 57 754 75 828 57 765 z "},"\"":{"ha":367,"x_min":0,"x_max":0,"o":"m 57 754 b 68 744 57 747 63 744 b 147 846 101 744 138 821 b 171 936 158 875 178 904 b 125 979 163 968 144 979 b 72 933 99 979 71 957 b 79 839 71 896 88 875 b 57 754 75 828 57 765 z m 196 754 b 207 744 196 747 201 744 b 286 846 240 744 276 821 b 308 936 297 875 317 904 b 264 979 301 968 282 979 b 211 933 238 979 210 957 b 217 839 210 896 226 875 b 196 754 214 828 194 765 z "},"-":{"ha":524,"x_min":0,"x_max":0,"o":"m 472 397 b 511 428 489 397 511 414 l 513 438 b 464 456 513 451 464 440 b 461 468 464 463 465 465 b 253 494 453 475 288 494 b 147 492 218 494 182 492 b 132 492 142 492 138 492 b 42 468 101 486 72 468 b 18 419 33 468 18 432 b 97 390 18 396 56 390 b 207 400 144 392 196 400 l 272 401 b 360 396 301 401 331 396 b 418 401 379 396 399 401 b 472 397 436 401 454 397 z "},"_":{"ha":536,"x_min":0,"x_max":0,"o":"m 528 -144 b 567 -114 544 -144 567 -128 l 568 -106 b 519 -86 568 -90 519 -101 b 517 -74 519 -79 521 -76 b 239 -47 508 -67 274 -47 b 106 -50 204 -47 140 -50 b 90 -51 100 -50 96 -50 b 0 -74 60 -56 31 -74 b -24 -124 -8 -74 -24 -110 b 56 -151 -24 -147 14 -151 b 193 -142 103 -150 182 -142 l 258 -140 b 388 -146 288 -140 358 -146 b 474 -140 407 -146 454 -140 b 528 -144 492 -140 510 -144 z "},"/":{"ha":558,"x_min":0,"x_max":0,"o":"m 25 54 b -47 -87 0 8 -22 -40 b -42 -93 -50 -94 -49 -103 b -31 -76 -37 -89 -33 -82 b 21 -29 -21 -60 -8 -14 l 29 -35 b 92 38 43 -43 76 46 b 107 35 100 33 99 29 b 518 743 131 54 478 663 b 592 907 542 797 563 856 b 564 975 599 922 578 967 b 464 857 540 988 501 928 b 307 563 422 778 318 582 l 249 454 b 125 243 222 404 151 292 b 78 143 108 211 96 175 b 25 54 63 113 42 85 z "},":":{"ha":372,"x_min":0,"x_max":0,"o":"m 114 497 b 138 489 121 493 128 489 b 172 535 146 489 169 526 l 175 538 b 178 564 176 546 178 556 b 147 601 178 585 171 601 b 75 583 132 601 82 601 l 71 576 l 72 569 b 86 522 86 558 85 539 b 94 514 89 521 92 517 b 114 497 101 508 108 504 z m 114 -3 b 138 -11 121 -7 128 -11 b 172 35 146 -11 169 26 l 175 38 b 178 64 176 46 178 56 b 147 101 178 85 171 101 b 75 83 132 101 82 101 l 71 76 l 72 69 b 86 22 86 58 85 39 b 94 14 89 21 92 17 b 114 -3 101 8 108 4 z "},";":{"ha":235,"x_min":0,"x_max":0,"o":"m 114 497 b 138 489 121 493 128 489 b 172 535 146 489 169 526 l 175 538 b 178 564 176 546 178 556 b 147 601 178 585 171 601 b 75 583 132 601 82 601 l 71 576 l 72 569 b 86 522 86 558 85 539 b 94 514 89 521 92 517 b 114 497 101 508 108 504 z m 32 -90 b 51 -100 28 -106 42 -107 b 124 -28 76 -83 103 -54 b 171 53 143 -3 171 19 b 129 103 171 86 150 103 b 97 78 115 103 101 94 b 76 -15 86 42 96 17 b 32 -90 71 -25 35 -79 z "},"=":{"ha":554,"x_min":0,"x_max":0,"o":"m 472 467 b 511 497 489 467 511 483 l 513 507 b 464 525 513 521 464 510 b 461 538 464 532 465 535 b 253 564 453 544 288 564 b 147 561 218 564 182 561 b 132 561 142 561 138 561 b 42 538 101 556 72 538 b 18 489 33 538 18 501 b 97 460 18 465 56 460 b 207 469 144 461 196 469 l 272 471 b 360 465 301 471 331 465 b 418 471 379 465 399 471 b 472 467 436 471 454 467 z m 472 300 b 511 331 489 300 511 317 l 513 340 b 464 358 513 354 464 343 b 461 371 464 365 465 368 b 253 397 453 378 288 397 b 147 394 218 397 182 394 b 132 393 142 394 138 394 b 42 371 101 389 72 371 b 18 321 33 371 18 335 b 97 293 18 299 56 293 b 207 303 144 294 196 303 l 272 304 b 360 299 301 304 331 299 b 418 304 379 299 399 304 b 472 300 436 304 454 300 z "},"\\":{"ha":558,"x_min":0,"x_max":0,"o":"m 524 54 b 469 143 507 85 486 113 b 424 243 453 175 440 211 b 300 454 397 292 326 404 l 242 563 b 85 857 231 582 126 778 b -15 975 47 928 8 988 b -43 907 -29 967 -51 922 b 31 743 -15 856 7 797 b 43 718 35 735 38 726 b 442 35 96 622 419 53 b 457 38 450 29 449 33 b 519 -35 472 46 506 -43 l 528 -29 b 579 -76 557 -14 569 -60 b 590 -93 582 -82 586 -87 b 596 -87 597 -103 599 -94 b 524 54 571 -40 549 8 z "},"+":{"ha":529,"x_min":0,"x_max":0,"o":"m 289 664 b 258 704 289 681 272 704 l 250 704 b 218 653 229 704 222 675 b 196 493 217 646 203 554 b 146 492 179 493 163 492 b 132 492 142 492 138 492 b 42 468 101 486 72 468 b 18 419 33 468 18 432 b 97 390 18 396 56 390 b 193 399 132 392 171 397 b 194 339 193 379 194 358 b 196 325 194 335 194 329 b 218 235 200 294 218 265 b 268 210 218 225 254 210 b 296 289 290 210 296 247 b 286 400 294 336 286 389 l 286 401 b 360 396 311 400 335 396 b 418 401 379 396 399 401 b 472 397 436 401 454 397 b 511 428 489 397 511 414 l 513 438 b 463 456 513 451 463 440 b 460 468 463 463 465 465 b 286 492 454 474 346 488 b 290 553 288 513 290 532 b 285 611 290 572 285 592 b 289 664 285 629 289 646 z "},"`":{"ha":269,"x_min":0,"x_max":0,"o":"m 226 788 b 142 946 207 843 171 882 b 94 971 135 961 114 971 b 51 911 69 971 44 954 b 194 774 57 865 156 794 b 226 788 204 768 232 772 z "},"|":{"ha":250,"x_min":0,"x_max":0,"o":"m 83 -171 b 88 -331 83 -225 86 -278 b 94 -333 88 -337 92 -344 b 96 -314 96 -326 96 -319 b 118 -247 96 -293 86 -247 l 128 -247 b 150 -154 146 -249 132 -154 b 164 -149 158 -154 160 -158 b 193 525 172 -133 193 458 b 192 867 193 593 192 800 b 190 894 192 876 190 885 b 164 1067 185 953 164 1007 b 108 1113 164 1083 124 1113 b 76 961 81 1113 75 1042 b 88 611 76 872 88 633 l 88 488 b 82 42 88 432 82 99 b 88 -68 82 6 88 -32 b 83 -171 88 -103 83 -137 z "},"":{"ha":558,"x_min":0,"x_max":0,"o":"m 25 54 b -47 -87 0 8 -22 -40 b -42 -93 -50 -94 -49 -103 b -31 -76 -37 -89 -33 -82 b 21 -29 -21 -60 -8 -14 l 29 -35 b 92 38 43 -43 76 46 b 107 35 100 33 99 29 b 518 743 131 54 478 663 b 592 907 542 797 563 856 b 564 975 599 922 578 967 b 464 857 540 988 501 928 b 307 563 422 778 318 582 l 249 454 b 125 243 222 404 151 292 b 78 143 108 211 96 175 b 25 54 63 113 42 85 z "},"[":{"ha":883,"x_min":0,"x_max":0,"o":"m 546 872 b 519 921 538 889 526 904 b 485 969 511 940 507 965 b 451 956 465 975 463 971 b 378 836 429 924 392 856 b 303 663 358 807 325 731 b 67 131 225 436 67 135 b 28 32 67 106 38 57 l 29 25 l 32 22 l 29 8 l 33 10 b 60 22 40 17 50 22 l 65 21 l 72 24 b 243 288 140 104 199 193 b 281 360 254 313 264 338 b 360 528 296 421 335 472 b 474 775 397 608 421 700 b 507 697 488 750 497 724 b 676 276 554 553 615 415 b 718 179 692 244 711 214 b 729 158 724 172 726 165 b 800 28 747 113 771 69 l 807 32 b 833 0 819 25 825 11 l 856 8 b 817 128 847 31 817 111 b 581 771 817 236 628 636 b 546 872 569 806 564 840 z "},"]":{"ha":883,"x_min":0,"x_max":0,"o":"m 546 872 b 519 921 538 889 526 904 b 485 969 511 940 507 965 b 451 956 465 975 463 971 b 378 836 429 924 392 856 b 303 663 358 807 325 731 b 67 131 225 436 67 135 b 28 32 67 106 38 57 l 29 25 l 32 22 l 29 8 l 33 10 b 60 22 40 17 50 22 l 65 21 l 72 24 b 243 288 140 104 199 193 b 281 360 254 313 264 338 b 360 528 296 421 335 472 b 474 775 397 608 421 700 b 507 697 488 750 497 724 b 676 276 554 553 615 415 b 718 179 692 244 711 214 b 729 158 724 172 726 165 b 800 28 747 113 771 69 l 807 32 b 833 0 819 25 825 11 l 856 8 b 817 128 847 31 817 111 b 581 771 817 236 628 636 b 546 872 569 806 564 840 z m 439 351 b 432 350 439 351 435 350 b 426 350 432 350 428 350 b 422 349 425 349 422 349 b 414 346 419 349 414 347 b 408 344 413 346 408 344 b 401 342 407 344 403 342 b 397 338 401 342 399 339 b 396 333 397 338 396 333 b 392 328 396 333 392 328 b 392 324 390 328 390 325 b 394 321 392 324 393 321 b 399 315 394 319 399 315 b 401 313 399 314 400 313 b 404 304 401 310 404 304 b 407 299 406 303 407 299 b 408 292 407 297 407 293 b 411 267 408 289 411 269 b 411 261 411 265 411 261 b 414 257 413 260 414 258 b 428 243 417 254 426 244 b 447 228 431 242 444 231 b 453 225 449 228 453 225 b 460 222 454 224 460 222 b 467 219 461 221 465 219 b 475 221 467 219 472 219 b 479 225 475 221 478 224 b 482 229 479 225 482 228 b 494 247 485 232 493 244 b 500 257 494 249 499 256 b 511 278 501 260 510 274 b 514 281 513 279 514 281 b 517 290 515 282 517 289 b 518 296 517 292 518 296 b 518 308 518 297 518 307 b 518 315 518 310 518 314 b 518 325 518 317 518 324 b 517 329 518 325 517 329 b 514 336 517 331 515 335 b 511 342 514 336 513 340 b 507 346 511 342 510 344 b 504 349 507 347 506 349 b 501 350 504 349 501 350 b 497 351 500 350 499 351 b 493 353 497 351 493 353 b 451 353 486 353 457 353 b 439 351 450 353 442 351 z "},"{":{"ha":747,"x_min":0,"x_max":0,"o":"m 326 604 b 171 518 260 604 215 560 b 56 221 92 442 56 332 b 347 22 56 47 218 22 b 385 32 360 22 371 32 b 457 46 410 32 435 33 b 506 67 472 54 486 67 b 550 93 522 67 550 71 b 540 103 550 99 546 103 b 529 101 536 103 533 103 b 514 104 524 103 518 104 b 385 90 469 104 428 90 b 167 236 274 90 167 99 b 353 510 167 367 264 510 b 415 515 374 510 393 515 b 529 288 450 515 513 324 b 717 -10 556 229 654 18 b 735 -26 721 -17 728 -22 b 751 6 743 -19 751 -6 b 722 71 751 18 728 53 b 571 428 685 190 640 322 b 396 594 557 496 461 594 b 326 604 372 594 344 604 z "},"}":{"ha":747,"x_min":0,"x_max":0,"o":"m 326 604 b 171 518 260 604 215 560 b 56 221 92 442 56 332 b 347 22 56 47 218 22 b 385 32 360 22 371 32 b 457 46 410 32 435 33 b 506 67 472 54 486 67 b 550 93 522 67 550 71 b 540 103 550 99 546 103 b 529 101 536 103 533 103 b 514 104 524 103 518 104 b 385 90 469 104 428 90 b 167 236 274 90 167 99 b 353 510 167 367 264 510 b 415 515 374 510 393 515 b 529 288 450 515 513 324 b 717 -10 556 229 654 18 b 735 -26 721 -17 728 -22 b 751 6 743 -19 751 -6 b 722 71 751 18 728 53 b 571 428 685 190 640 322 b 396 594 557 496 461 594 b 326 604 372 594 344 604 z m 342 351 b 335 350 342 351 338 350 b 329 350 335 350 331 350 b 325 349 328 349 325 349 b 317 346 322 349 317 347 b 311 344 315 346 311 344 b 304 342 310 344 306 342 b 300 338 304 342 301 339 b 299 333 300 338 299 333 b 294 328 299 333 294 328 b 294 324 293 328 293 325 b 297 321 294 324 296 321 b 301 315 297 319 301 315 b 304 313 301 314 303 313 b 307 304 304 310 307 304 b 310 299 308 303 310 299 b 311 292 310 297 310 293 b 314 267 311 289 314 269 b 314 261 314 265 314 261 b 317 257 315 260 317 258 b 331 243 319 254 329 244 b 350 228 333 242 347 231 b 356 225 351 228 356 225 b 363 222 357 224 363 222 b 369 219 364 221 368 219 b 378 221 369 219 375 219 b 382 225 378 221 381 224 b 385 229 382 225 385 228 b 397 247 388 232 396 244 b 403 257 397 249 401 256 b 414 278 404 260 413 274 b 417 281 415 279 417 281 b 419 290 418 282 419 289 b 421 296 419 292 421 296 b 421 308 421 297 421 307 b 421 315 421 310 421 314 b 421 325 421 317 421 324 b 419 329 421 325 419 329 b 417 336 419 331 418 335 b 414 342 417 336 415 340 b 410 346 414 342 413 344 b 407 349 410 347 408 349 b 404 350 407 349 404 350 b 400 351 403 350 401 351 b 396 353 400 351 396 353 b 354 353 389 353 360 353 b 342 351 353 353 344 351 z "},"<":{"ha":794,"x_min":0,"x_max":0,"o":"m 443 972 b 69 661 271 972 58 857 b 192 481 76 564 142 521 b 363 410 233 447 272 439 b 589 329 439 386 517 364 b 644 260 617 317 644 292 b 439 106 644 203 483 119 b 222 82 364 85 281 82 b 142 74 193 82 168 74 b 85 88 122 74 104 88 b 61 72 79 88 61 88 b 292 0 61 10 258 0 b 388 6 322 0 357 6 b 713 171 482 6 657 93 b 738 263 731 194 738 228 b 724 346 738 293 732 322 b 479 482 689 443 589 450 b 325 521 439 494 364 506 b 160 660 265 544 160 579 b 206 731 160 686 176 710 b 557 847 308 801 431 847 b 636 806 593 847 614 806 b 654 831 649 806 654 819 b 563 936 654 865 593 918 b 443 972 524 960 493 972 z "}}}
